# AST/ASF file generated using VICON BodyLanguage
# -----------------------------------------------
:version 1.10
:name VICON
:units
  mass 1.0
  length 0.45
  angle deg
:documentation
   .ast/.asf automatically generated from VICON data using
   VICON BodyBuilder and BodyLanguage model FoxedUp or BRILLIANT.MOD
:root
   order TX TY TZ RX RY RZ
   axis XYZ
   position 0 0 0  
   orientation 0 0 0 
:bonedata
  begin
     id 1 
     name lhipjoint
     direction 0.440178 -0.822639 0.359871 
     length 2.53113 
     axis 0 0 0  XYZ
  end
  begin
     id 2 
     name lfemur
     direction 0.34202 -0.939693 0  
     length 7.88132  
     axis 0 0 20  XYZ
    dof rx ry rz
    limits (-160.0 20.0)
           (-70.0 70.0)
           (-60.0 70.0)
  end
  begin
     id 3 
     name ltibia
     direction 0.34202 -0.939693 0   
     length 8.43783   
     axis 0 0 20   XYZ
    dof rx
    limits (-10.0 170.0)
  end
  begin
     id 4 
     name lfoot
     direction 0.0886351 -0.243523 0.965837   
     length 2.63414   
     axis -90 7.62852e-016 20   XYZ
    dof rx rz
    limits (-45.0 90.0)
           (-70.0 20.0)
  end
  begin
     id 5 
     name ltoes
     direction 1.53703e-011 -4.21717e-011 1   
     length 1.31427   
     axis -90 7.62852e-016 20   XYZ
    dof rx
    limits (-90.0 20.0)
  end
  begin
     id 6 
     name rhipjoint
     direction -0.399779 -0.839773 0.367367   
     length 2.47948  
     axis 0 0 0  XYZ 
  end
  begin
     id 7 
     name rfemur
     direction -0.34202 -0.939693 0   
     length 7.74806   
     axis 0 0 -20   XYZ
    dof rx ry rz
    limits (-160.0 20.0)
           (-70.0 70.0)
           (-70.0 60.0)
  end
  begin
     id 8 
     name rtibia
     direction -0.34202 -0.939693 0   
     length 8.74432   
     axis 0 0 -20   XYZ
    dof rx
    limits (-10.0 170.0)
 end
 begin
     id 9 
     name rfoot
     direction -0.108514 -0.298139 0.948334   
     length 2.66102  
     axis -90 -7.62852e-016 -20   XYZ
    dof rx rz
    limits (-45.0 90.0)
           (-20.0 70.0)
  end
  begin
     id 10 
     name rtoes
     direction -1.53392e-011 -4.22077e-011 1   
     length 1.31983   
     axis -90 -7.62852e-016 -20   XYZ
    dof rx
    limits (-90.0 20.0)
  end
  begin
     id 11 
     name lowerback
     direction 0.0113257 0.999866 0.0118602   
     length 2.58694   
     axis 0 0 0   XYZ
    dof rx ry rz
    limits (-20.0 45.0)
           (-30.0 30.0)
           (-30.0 30.0)
  end
  begin
     id 12 
     name upperback
     direction -0.0164747 0.995193 -0.0965375   
     length 2.52368   
     axis 0 0 0   XYZ
    dof rx ry rz
    limits (-20.0 45.0)
           (-30.0 30.0)
           (-30.0 30.0)
  end
  begin
     id 13 
     name thorax
     direction -0.0194301 0.99433 -0.104552   
     length 2.56099   
     axis 0 0 0   XYZ
    dof rx ry rz
    limits (-20.0 45.0)
           (-30.0 30.0)
           (-30.0 30.0)
  end
  begin
     id 14 
     name lowerneck
     direction 0.0148543 0.995587 -0.092657   
     length 1.71582   
     axis 0 0 0   XYZ
    dof rx ry rz
    limits (-20.0 45.0)
           (-30.0 30.0)
           (-30.0 30.0)
  end
  begin
     id 15 
     name upperneck
     direction -0.0135467 0.993656 -0.111639   
     length 1.68937   
     axis 0 0 0   XYZ
    dof rx ry rz
    limits (-20.0 45.0)
           (-30.0 30.0)
           (-30.0 30.0)
  end
  begin
     id 16
     name head
     direction -0.00615349 0.999547 -0.029448  
     length 1.7462  
     axis 0 0 0   XYZ
    dof rx ry rz
    limits (-20.0 45.0)
           (-30.0 30.0)
           (-30.0 30.0)
  end
  begin
     id 17 
     name lclavicle
     direction 0.988267 0.149885 0.0293713  
     length 4.47222  
     axis 0 0 0   XYZ
    dof ry rz
    limits (-20.0 10.0)
           (0.0 20.0)
  end
  begin
     id 18 
     name lhumerus
     direction 1 -4.48986e-011 -1.14833e-027   
     length 5.37148   
     axis 180 -30 -90   XYZ
    dof rx ry rz
    limits (-60.0 90.0)
           (-90.0 90.0)
           (-90.0 90.0)
  end
  begin
     id 19
     name lradius
     direction 0.999998 0.00170963 -0.000987055   
     length 3.94212   
     axis 180 -30 -90   XYZ
    dof rx
    limits (-10.0 170.0)
  end
  begin
     id 20
     name lwrist
     direction 0.999998 7.53149e-005 -0.00194706   
     length 1.97106   
     axis 4.65056e-015 90 90   XYZ
    dof ry
    limits (-180.0 0.0)
 end
  begin
     id 21 
     name lhand
     direction 1 -4.48973e-011 -1.31746e-026   
     length 1.17917   
     axis 8.4065e-015 90 90   XYZ
    dof rx rz
    limits (-90.0 90.0)
           (-45.0 45.0)
  end
  begin
     id 22 
     name lfingers
     direction 1 -4.49107e-011 -2.63492e-026   
     length 0.950679   
     axis 1.6813e-014 90 90   XYZ
    dof rx
    limits (0.0 90.0)
  end
  begin
     id 23
     name lthumb
     direction 0.707107 -6.35048e-011 0.707107   
     length 1.36499   
     axis -90 45 2.85299e-015   XYZ
    dof rx rz
    limits (-45.0 45.0)
           (-45.0 45.0)
  end
  begin
     id 24 
     name rclavicle
     direction -0.996699 0.0642895 -0.0495725   
     length 4.62611  
     axis 0 0 0   XYZ 
    dof ry rz
    limits (-10.0 20.0)
           (-20.0 0.0)
  end
  begin
     id 25 
     name rhumerus
     direction -1 -4.48919e-011 -2.41059e-027  
     length 5.4981   
     axis 180 30 90   XYZ
    dof rx ry rz
    limits (-90.0 60.0)
           (-90.0 90.0)
           (-90.0 90.0)
  end
  begin
     id 26 
     name rradius
     direction -0.999999 0.00118101 -0.000681858   
     length 3.48381   
     axis 180 30 90   XYZ
    dof rx
    limits (-10.0 170.0)
  end
  begin
     id 27 
     name rwrist
     direction -0.999999 0.000321823 -0.00132288   
     length 1.7419   
     axis 4.65056e-015 -90 -90   XYZ
    dof ry
    limits (-180.0 0.0)
  end
  begin
     id 28
     name rhand
     direction -1 -4.49022e-011 -1.31746e-026   
     length 1.34932   
     axis 8.4065e-015 -90 -90   XYZ
    dof rx rz
    limits (-90.0 90.0)
           (-45.0 45.0)
  end
  begin
     id 29
     name rfingers
     direction -1 -4.49178e-011 -2.63492e-026   
     length 1.08785   
     axis 1.6813e-014 -90 -90   XYZ
    dof rx
    limits (0.0 90.0)
  end
  begin
     id 30
     name rthumb
     direction -0.707107 -6.34713e-011 0.707107   
     length 1.56195   
     axis -90 -45 -2.85299e-015   XYZ
    dof rx rz
    limits (-45.0 45.0)
           (-45.0 45.0)
  end
:hierarchy
  begin
    root lhipjoint rhipjoint lowerback
    lhipjoint lfemur
    lfemur ltibia
    ltibia lfoot
    lfoot ltoes
    rhipjoint rfemur
    rfemur rtibia
    rtibia rfoot
    rfoot rtoes
    lowerback upperback
    upperback thorax
    thorax lowerneck lclavicle rclavicle
    lowerneck upperneck
    upperneck head
    lclavicle lhumerus
    lhumerus lradius
    lradius lwrist
    lwrist lhand lthumb
    lhand lfingers
    rclavicle rhumerus
    rhumerus rradius
    rradius rwrist
    rwrist rhand rthumb
    rhand rfingers
  end

#!OML:ASF X:\für Bonn\!DataBase\2005_08_10_Bjorn_Final\c3d\bjorn.ASF
:FULLY-SPECIFIED
:DEGREES
1
root 1.88698 18.49 2.89292 -176.755 -16.8478 175.72
lowerback 10.3896 2.80023 -1.45741
upperback 13.2075 1.67047 -6.3336
thorax 8.44958 0.12467 -6.19196
lowerneck -6.28685 -5.20405 -6.55445
upperneck 3.25799 -7.04621 10.6468
head 2.61238 -3.32073 3.96017
rclavicle -1.43125e-014 -1.39944e-013
rhumerus -29.2898 -10.7119 -92.9409
rradius 31.6231
rwrist 7.65959
rhand -8.97531 15.1665
rfingers 7.12502
rthumb 16.9702 -14.1122
lclavicle -1.43125e-014 -1.39944e-013
lhumerus -13.3367 -27.5526 85.8631
lradius 56.7635
lwrist -19.7004
lhand -28.1291 -16.5839
lfingers 7.12502
lthumb -1.51058 13.3905
rfemur -29.1058 -5.59417 12.4318
rtibia 49.1359
rfoot -19.3782 7.9696
rtoes -16.662
lfemur -18.73 -2.44582 -16.6604
ltibia 40.2284
lfoot -18.2346 -13.619
ltoes -10.1396
2
root 1.92575 18.4877 2.86034 -176.456 -17.3256 175.517
lowerback 10.6784 2.77229 -1.23399
upperback 13.2345 1.62827 -6.3231
thorax 8.32475 0.12327 -6.30828
lowerneck -6.29408 -5.38695 -6.53366
upperneck 2.97453 -7.29826 10.9532
head 2.56351 -3.44628 4.03775
rclavicle -4.77083e-015 5.80451e-014
rhumerus -29.3244 -10.3094 -93.0031
rradius 31.5613
rwrist 7.79363
rhand -9.1916 15.1528
rfingers 7.12502
rthumb 16.762 -14.1436
lclavicle -4.77083e-015 5.80451e-014
lhumerus -13.8278 -27.3889 85.9465
lradius 56.9874
lwrist -19.4897
lhand -28.3842 -16.4723
lfingers 7.12502
lthumb -1.75697 13.5002
rfemur -29.1839 -5.54604 12.3693
rtibia 49.1738
rfoot -19.5807 7.47714
rtoes -17.0456
lfemur -19.0123 -2.67681 -16.6979
ltibia 40.3464
lfoot -18.4688 -13.6313
ltoes -9.77735
3
root 1.96458 18.4889 2.82765 -176.075 -17.7881 175.24
lowerback 10.9051 2.7298 -1.0993
upperback 13.2396 1.57178 -6.3158
thorax 8.20384 0.108685 -6.37519
lowerneck -6.28578 -5.55581 -6.47923
upperneck 2.64595 -7.52335 11.1682
head 2.49203 -3.56216 4.08458
rclavicle -9.54166e-015 -3.10104e-014
rhumerus -29.3986 -9.8838 -93.053
rradius 31.5811
rwrist 7.9798
rhand -9.35442 15.0861
rfingers 7.12502
rthumb 16.6052 -14.2235
lclavicle -9.54166e-015 -3.10104e-014
lhumerus -14.3024 -27.178 86.0408
lradius 57.0957
lwrist -19.2161
lhand -28.6446 -16.4445
lfingers 7.12502
lthumb -2.00849 13.5258
rfemur -29.3393 -5.53611 12.2379
rtibia 49.1947
rfoot -19.7229 7.03998
rtoes -17.2708
lfemur -19.3889 -2.86746 -16.8174
ltibia 40.4727
lfoot -18.6736 -13.6265
ltoes -9.49874
4
root 2.00138 18.4928 2.79439 -175.633 -18.1653 174.88
lowerback 11.0619 2.70311 -1.03283
upperback 13.2407 1.53572 -6.34845
thorax 8.11879 0.0995979 -6.44792
lowerneck -6.29297 -5.71286 -6.27424
upperneck 2.2718 -7.73114 11.2419
head 2.39656 -3.67279 4.06559
rclavicle -2.62396e-014 6.2816e-014
rhumerus -29.4836 -9.54106 -93.1138
rradius 31.6841
rwrist 8.21688
rhand -9.41934 14.9502
rfingers 7.12502
rthumb 16.5427 -14.3646
lclavicle -2.62396e-014 6.2816e-014
lhumerus -14.6756 -27.0106 86.072
lradius 57.0203
lwrist -18.82
lhand -28.8879 -16.4138
lfingers 7.12502
lthumb -2.2434 13.5541
rfemur -29.5552 -5.56232 12.0151
rtibia 49.2021
rfoot -19.8285 6.73403
rtoes -17.36
lfemur -19.7855 -3.10784 -17.0351
ltibia 40.6146
lfoot -18.8119 -13.5866
ltoes -8.85803
5
root 2.03582 18.4992 2.76208 -175.139 -18.4917 174.447
lowerback 11.164 2.67187 -1.01995
upperback 13.2314 1.49471 -6.40741
thorax 8.0507 0.0848537 -6.51818
lowerneck -6.29169 -5.84906 -6.02708
upperneck 1.86639 -7.90866 11.2611
head 2.28342 -3.77131 4.02622
rclavicle -2.94201e-014 -4.92986e-014
rhumerus -29.6056 -9.25259 -93.1596
rradius 31.8684
rwrist 8.46821
rhand -9.42983 14.8628
rfingers 7.12502
rthumb 16.5326 -14.4529
lclavicle -2.94201e-014 -4.92986e-014
lhumerus -15.0228 -26.8578 86.0916
lradius 56.8166
lwrist -18.3271
lhand -29.0644 -16.3626
lfingers 7.12502
lthumb -2.41387 13.6035
rfemur -29.7967 -5.62081 11.7108
rtibia 49.1963
rfoot -19.9127 6.50269
rtoes -17.3238
lfemur -20.2077 -3.51299 -17.3166
ltibia 40.7969
lfoot -18.8059 -13.648
ltoes -7.21961
6
root 2.06889 18.507 2.73093 -174.613 -18.7766 173.939
lowerback 11.233 2.62771 -1.09772
upperback 13.2079 1.43454 -6.46593
thorax 7.97799 0.0527106 -6.53413
lowerneck -6.28318 -5.96111 -5.81214
upperneck 1.49393 -8.05021 11.2387
head 2.17468 -3.85268 3.98194
rclavicle 1.59028e-015 -4.05521e-014
rhumerus -29.7618 -9.09239 -93.133
rradius 32.1219
rwrist 8.81774
rhand -9.31606 14.7377
rfingers 7.12502
rthumb 16.6422 -14.5688
lclavicle 1.59028e-015 -4.05521e-014
lhumerus -15.4192 -26.7064 86.1153
lradius 56.6158
lwrist -17.7394
lhand -29.2789 -16.334
lfingers 7.12502
lthumb -2.62109 13.6297
rfemur -30.0446 -5.66534 11.3204
rtibia 49.1762
rfoot -20.0004 6.29006
rtoes -17.3206
lfemur -20.6232 -3.76951 -17.7251
ltibia 41.0396
lfoot -18.946 -13.5517
ltoes -7.17057
7
root 2.10071 18.5162 2.70128 -174.082 -19.0231 173.459
lowerback 11.2552 2.56638 -1.1887
upperback 13.18 1.35695 -6.48987
thorax 7.9217 0.010918 -6.50255
lowerneck -6.28288 -6.04705 -5.63861
upperneck 1.12034 -8.15111 11.1905
head 2.06361 -3.91469 3.93917
rclavicle -9.54166e-015 6.91771e-014
rhumerus -29.8986 -8.92008 -93.0455
rradius 32.4055
rwrist 9.11567
rhand -9.14913 14.6382
rfingers 7.12502
rthumb 16.8029 -14.6547
lclavicle -9.54166e-015 6.91771e-014
lhumerus -15.8789 -26.5694 86.1477
lradius 56.4859
lwrist -17.0282
lhand -29.5188 -16.4254
lfingers 7.12502
lthumb -2.85273 13.5352
rfemur -30.3139 -5.69346 10.9537
rtibia 49.1455
rfoot -20.072 6.11255
rtoes -17.0625
lfemur -21.0229 -3.76081 -18.1803
ltibia 41.3616
lfoot -19.3585 -13.2652
ltoes -9.50952
8
root 2.13005 18.5265 2.67161 -173.56 -19.2232 173.011
lowerback 11.2224 2.49734 -1.25356
upperback 13.1446 1.2784 -6.49248
thorax 7.88754 -0.0277008 -6.46143
lowerneck -6.29035 -6.11542 -5.54508
upperneck 0.788589 -8.22569 11.1606
head 1.96786 -3.9623 3.91573
rclavicle -9.06458e-014 -3.18055e-014
rhumerus -30.0038 -8.79656 -92.899
rradius 32.6927
rwrist 9.40983
rhand -8.98544 14.5601
rfingers 7.12502
rthumb 16.9605 -14.7194
lclavicle -9.06458e-014 -3.18055e-014
lhumerus -16.4243 -26.4855 86.1653
lradius 56.4264
lwrist -16.3345
lhand -29.8304 -16.5387
lfingers 7.12502
lthumb -3.15367 13.4178
rfemur -30.5761 -5.70835 10.6111
rtibia 49.0981
rfoot -20.1673 5.95505
rtoes -16.8393
lfemur -21.3812 -3.79332 -18.6212
ltibia 41.7749
lfoot -19.7218 -13.0452
ltoes -11.6393
9
root 2.15692 18.537 2.64237 -173.065 -19.4044 172.637
lowerback 11.1238 2.41778 -1.25397
upperback 13.1157 1.19818 -6.45543
thorax 7.89825 -0.0605338 -6.41332
lowerneck -6.33325 -6.17714 -5.46929
upperneck 0.481739 -8.28636 11.0586
head 1.88123 -4.00211 3.87316
rclavicle -2.82274e-014 3.57812e-014
rhumerus -30.0067 -8.67053 -92.6961
rradius 32.9186
rwrist 9.54632
rhand -8.85408 14.5144
rfingers 7.12502
rthumb 17.0869 -14.7542
lclavicle -2.82274e-014 3.57812e-014
lhumerus -17.0311 -26.5418 86.1578
lradius 56.4488
lwrist -15.6548
lhand -30.1189 -16.5539
lfingers 7.12502
lthumb -3.43225 13.3983
rfemur -30.8339 -5.70445 10.3386
rtibia 49.0439
rfoot -20.2794 5.7667
rtoes -16.8657
lfemur -21.6799 -3.88805 -18.9958
ltibia 42.2842
lfoot -20.0627 -12.8987
ltoes -13.7058
10
root 2.18142 18.5468 2.61478 -172.65 -19.5404 172.337
lowerback 11.028 2.34016 -1.16991
upperback 13.0956 1.12496 -6.39436
thorax 7.92065 -0.0832631 -6.38796
lowerneck -6.38893 -6.2406 -5.5696
upperneck 0.147608 -8.33816 10.733
head 1.97096 -4.05321 4.2114
rclavicle 4.25399e-014 2.22639e-014
rhumerus -29.949 -8.55004 -92.4576
rradius 33.0906
rwrist 9.53659
rhand -8.83465 14.5222
rfingers 7.12502
rthumb 17.1056 -14.7448
lclavicle 4.25399e-014 2.22639e-014
lhumerus -17.6623 -26.7893 86.1152
lradius 56.5268
lwrist -14.975
lhand -30.3964 -16.3807
lfingers 7.12502
lthumb -3.70023 13.5669
rfemur -31.0407 -5.66803 10.1282
rtibia 48.9844
rfoot -20.3582 5.64602
rtoes -16.5832
lfemur -21.85 -4.06663 -19.3067
ltibia 42.9118
lfoot -20.2079 -12.7579
ltoes -15.2973
11
root 2.20249 18.5539 2.58818 -172.326 -19.641 172.111
lowerback 10.8913 2.22577 -1.06746
upperback 13.1001 1.0043 -6.26999
thorax 7.98646 -0.130844 -6.30274
lowerneck -6.53684 -6.25698 -5.70762
upperneck 0.0661523 -8.3351 10.9904
head 1.80201 -4.03414 3.88853
rclavicle -9.38264e-014 -2.78299e-014
rhumerus -29.8215 -8.34197 -92.1487
rradius 33.1886
rwrist 9.4037
rhand -8.90055 14.6453
rfingers 7.12502
rthumb 17.0422 -14.6272
lclavicle -9.38264e-014 -2.78299e-014
lhumerus -18.3209 -26.9642 86.1092
lradius 56.6586
lwrist -14.3332
lhand -30.6381 -16.0398
lfingers 7.12502
lthumb -3.93363 13.9036
rfemur -31.183 -5.5809 9.97241
rtibia 48.9211
rfoot -20.4205 5.54948
rtoes -16.2059
lfemur -21.8262 -4.41234 -19.5471
ltibia 43.6843
lfoot -20.0846 -12.5441
ltoes -16.4023
12
root 2.22058 18.56 2.56378 -172.091 -19.7286 171.958
lowerback 10.751 2.08053 -0.93125
upperback 13.0927 0.848199 -6.0876
thorax 8.03559 -0.193995 -6.17079
lowerneck -6.61221 -6.24628 -6.0881
upperneck -0.0689122 -8.27563 10.9994
head 1.78533 -4.00501 3.9551
rclavicle 1.63003e-014 -3.4191e-014
rhumerus -29.7518 -8.08174 -91.7531
rradius 33.3219
rwrist 9.15098
rhand -9.00867 14.7688
rfingers 7.12502
rthumb 16.9381 -14.5126
lclavicle 1.63003e-014 -3.4191e-014
lhumerus -19.0313 -26.994 86.2197
lradius 56.7357
lwrist -13.8023
lhand -30.8547 -15.6566
lfingers 7.12502
lthumb -4.1428 14.2829
rfemur -31.254 -5.52941 9.88682
rtibia 48.8393
rfoot -20.4931 5.47609
rtoes -16.0714
lfemur -21.6353 -4.89285 -19.7169
ltibia 44.6587
lfoot -19.7797 -12.3373
ltoes -17.3144
